<svg preserveAspectRatio="none" overflow="visible" style="display: block;" width="238.541" height="126.978" viewBox="0 0 238.541 126.978" fill="none" xmlns="http://www.w3.org/2000/svg">
<path id="Vector 29" d="M70.2118 75.8987L71.1302 76.2943L70.2118 75.8987ZM227.874 5.33333C227.874 8.27885 230.262 10.6667 233.207 10.6667C236.153 10.6667 238.541 8.27885 238.541 5.33333C238.541 2.38781 236.153 0 233.207 0C230.262 0 227.874 2.38781 227.874 5.33333ZM0.207279 126L0.414557 126.978C0.886831 126.878 1.37339 126.77 1.87337 126.654L1.64734 125.68L1.42131 124.706C0.93335 124.819 0.459302 124.925 0 125.022L0.207279 126ZM4.52173 124.962L4.77943 125.928C5.70904 125.68 6.6734 125.409 7.66838 125.113L7.38371 124.155L7.09904 123.196C6.12154 123.486 5.17516 123.753 4.26402 123.996L4.52173 124.962ZM10.2198 123.273L10.5287 124.224C11.4519 123.924 12.3961 123.606 13.3584 123.268L13.0272 122.324L12.696 121.381C11.7486 121.713 10.8193 122.027 9.91103 122.322L10.2198 123.273ZM15.8171 121.309L16.1696 122.245C17.0868 121.899 18.0173 121.537 18.9586 121.158L18.5854 120.231L18.2121 119.303C17.2846 119.676 16.368 120.033 15.4645 120.373L15.8171 121.309ZM21.3294 119.091L21.723 120.01C22.6284 119.623 23.5417 119.22 24.461 118.802L24.0471 117.892L23.6332 116.981C22.7275 117.393 21.8277 117.79 20.9357 118.172L21.3294 119.091ZM26.7349 116.633L27.169 117.534C28.0585 117.105 28.9519 116.663 29.8476 116.206L29.393 115.315L28.9385 114.424C28.0566 114.874 27.1768 115.31 26.3007 115.732L26.7349 116.633ZM32.0207 113.935L32.4958 114.815C33.3675 114.344 34.2398 113.86 35.1113 113.362L34.6152 112.494L34.119 111.626C33.2617 112.116 32.4034 112.592 31.5455 113.055L32.0207 113.935ZM37.1739 110.989L37.6914 111.845C38.5413 111.331 39.389 110.803 40.2332 110.263L39.6937 109.421L39.1542 108.579C38.3249 109.11 37.4918 109.628 36.6563 110.134L37.1739 110.989ZM42.1714 107.786L42.7333 108.613C43.5569 108.054 44.3756 107.481 45.1883 106.895L44.6034 106.084L44.0186 105.273C43.2214 105.848 42.418 106.41 41.6096 106.959L42.1714 107.786ZM46.9855 104.313L47.5939 105.107C48.3856 104.5 49.1701 103.88 49.9459 103.247L49.3134 102.472L48.6809 101.697C47.9214 102.318 47.153 102.925 46.3772 103.52L46.9855 104.313ZM51.582 100.558L52.2391 101.312C52.9924 100.655 53.7358 99.9852 54.4683 99.3016L53.786 98.5706L53.1036 97.8395C52.3882 98.5073 51.6615 99.1622 50.9248 99.8044L51.582 100.558ZM55.9196 96.5075L56.6275 97.2138C57.3344 96.5052 58.0291 95.783 58.7103 95.0471L57.9764 94.3678L57.2426 93.6886C56.5788 94.4057 55.9014 95.1098 55.2117 95.8012L55.9196 96.5075ZM59.9496 92.1509L60.7096 92.8008C61.361 92.0391 61.9975 91.2636 62.618 90.4742L61.8319 89.8562L61.0457 89.2382C60.4426 90.0055 59.8235 90.7597 59.1896 91.501L59.9496 92.1509ZM63.6155 87.4842L64.4276 88.0677C65.0128 87.2532 65.5807 86.4247 66.1302 85.5822L65.2926 85.0359L64.455 84.4897C63.9223 85.3065 63.3714 86.1102 62.8034 86.9008L63.6155 87.4842ZM66.8553 82.5132L67.7176 83.0196C68.2255 82.1547 68.7138 81.2758 69.1815 80.3828L68.2956 79.9189L67.4097 79.455C66.9574 80.3188 66.4847 81.1693 65.9929 82.0068L66.8553 82.5132ZM69.6061 77.2567L70.5141 77.6757C70.7249 77.2187 70.9303 76.7583 71.1302 76.2943L70.2118 75.8987L69.2933 75.5031C69.1003 75.9513 68.9018 76.3962 68.6981 76.8378L69.6061 77.2567ZM70.2118 75.8987L71.1302 76.2943C71.3283 75.8345 71.5299 75.3757 71.7351 74.9179L70.8226 74.5088L69.9101 74.0998C69.7008 74.5665 69.4953 75.0343 69.2933 75.5031L70.2118 75.8987ZM72.1084 71.7514L73.0082 72.1875C73.445 71.2862 73.8964 70.3894 74.3625 69.4974L73.4763 69.0342L72.59 68.5711C72.1144 69.4811 71.654 70.3959 71.2085 71.3152L72.1084 71.7514ZM74.9251 66.3626L75.7967 66.8528C76.287 65.981 76.7921 65.1142 77.3124 64.2527L76.4564 63.7357L75.6004 63.2187C75.0693 64.098 74.5538 64.9827 74.0535 65.8724L74.9251 66.3626ZM78.0701 61.1558L78.9095 61.6993C79.4531 60.8599 80.0117 60.026 80.5857 59.1979L79.7639 58.6282L78.942 58.0585C78.356 58.904 77.7856 59.7553 77.2308 60.6123L78.0701 61.1558ZM81.5336 56.1592L82.3371 56.7545C82.9316 55.9521 83.5412 55.1556 84.1664 54.3652L83.3821 53.7449L82.5978 53.1245C81.9595 53.9314 81.337 54.7446 80.7301 55.5639L81.5336 56.1592ZM85.3087 51.3865L86.0731 52.0313C86.7163 51.2688 87.3746 50.5125 88.0484 49.7626L87.3046 49.0943L86.5608 48.4259C85.873 49.1913 85.201 49.9633 84.5443 50.7417L85.3087 51.3865ZM89.3697 46.8667L90.0925 47.5578C90.7825 46.8363 91.4876 46.1211 92.2081 45.4127L91.507 44.6996L90.8059 43.9866C90.0707 44.7094 89.3512 45.4392 88.647 46.1755L89.3697 46.8667ZM93.7105 42.5979L94.3896 43.3319C95.1199 42.6562 95.8649 41.987 96.625 41.3246L95.968 40.5707L95.311 39.8169C94.536 40.4923 93.7762 41.1747 93.0313 41.8639L93.7105 42.5979ZM98.2911 38.6056L98.9257 39.3784C99.698 38.7443 100.485 38.1169 101.286 37.4964L100.674 36.7056L100.062 35.9148C99.2455 36.5471 98.4436 37.1864 97.6565 37.8328L98.2911 38.6056ZM103.098 34.8839L103.687 35.6915C104.493 35.103 105.314 34.5212 106.148 33.9462L105.581 33.1227L105.014 32.2992C104.164 32.8845 103.329 33.4769 102.508 34.0762L103.098 34.8839ZM108.111 31.4292L108.657 32.2676C109.49 31.7256 110.337 31.1903 111.198 30.6618L110.675 29.8095L110.152 28.9573C109.277 29.4948 108.415 30.0393 107.566 30.5908L108.111 31.4292ZM113.296 28.2469L113.797 29.1121C114.658 28.6133 115.532 28.1211 116.419 27.6355L115.939 26.7583L115.459 25.881C114.558 26.3743 113.669 26.8746 112.794 27.3816L113.296 28.2469ZM118.624 25.331L119.083 26.2194C119.972 25.7602 120.873 25.3074 121.788 24.8614L121.35 23.9626L120.911 23.0637C119.983 23.5165 119.067 23.9762 118.165 24.4425L118.624 25.331ZM124.087 22.6652L124.505 23.5736C125.417 23.1538 126.34 22.7405 127.277 22.3337L126.878 21.4165L126.48 20.4993C125.53 20.9118 124.593 21.3311 123.668 21.7569L124.087 22.6652ZM129.665 20.2403L130.044 21.1656C130.971 20.7855 131.909 20.4117 132.86 20.0443L132.499 19.1116L132.138 18.1788C131.176 18.5511 130.225 18.9299 129.285 19.3151L129.665 20.2403ZM135.338 18.0455L135.681 18.9851C136.621 18.6425 137.572 18.306 138.534 17.9756L138.21 17.0298L137.885 16.084C136.911 16.4184 135.948 16.7591 134.996 17.106L135.338 18.0455ZM141.092 16.0694L141.4 17.021C142.351 16.7136 143.313 16.412 144.286 16.1164L143.995 15.1596L143.704 14.2028C142.72 14.5018 141.747 14.8068 140.785 15.1179L141.092 16.0694ZM146.912 14.3001L147.187 15.2617C148.148 14.9871 149.12 14.7182 150.102 14.4551L149.843 13.4891L149.584 12.5232C148.592 12.7891 147.61 13.0609 146.637 13.3385L146.912 14.3001ZM152.786 12.7256L153.029 13.6954C154.001 13.4515 154.982 13.2131 155.972 12.9802L155.744 12.0068L155.515 11.0333C154.514 11.2684 153.523 11.5092 152.542 11.7557L152.786 12.7256ZM158.704 11.334L158.919 12.3107C159.899 12.0954 160.89 11.8854 161.889 11.6808L161.688 10.7011L161.488 9.72144C160.479 9.92791 159.48 10.1399 158.49 10.3573L158.704 11.334ZM164.66 10.1141L164.847 11.0965C165.838 10.9078 166.837 10.7243 167.845 10.5461L167.671 9.5614L167.498 8.57665C166.48 8.75638 165.472 8.94145 164.473 9.13181L164.66 10.1141ZM170.648 9.05519L170.809 10.0421C171.805 9.87907 172.81 9.72111 173.824 9.56826L173.675 8.57944L173.526 7.59062C172.504 7.74469 171.491 7.90395 170.486 8.06831L170.648 9.05519ZM176.663 8.1471L176.801 9.13762C177.796 8.99956 178.8 8.86634 179.813 8.738L179.687 7.74594L179.561 6.75388C178.541 6.88319 177.53 7.01744 176.526 7.15657L176.663 8.1471ZM182.705 7.38059L182.819 8.374C183.813 8.25934 184.815 8.1493 185.824 8.04394L185.72 7.04934L185.616 6.05475C184.6 6.16086 183.591 6.27169 182.59 6.38719L182.705 7.38059ZM188.771 6.7472L188.865 7.74284C189.855 7.6501 190.852 7.56177 191.857 7.47791L191.774 6.48137L191.69 5.48484C190.679 5.56926 189.675 5.65818 188.678 5.75156L188.771 6.7472ZM194.82 6.24244L194.893 7.23975C195.892 7.16633 196.899 7.09724 197.913 7.03254L197.849 6.03457L197.785 5.0366C196.765 5.10171 195.752 5.17123 194.746 5.24512L194.82 6.24244ZM200.876 5.85554L200.931 6.85406C201.944 6.79885 202.964 6.74793 203.991 6.70137L203.945 5.70239L203.9 4.70342C202.867 4.75026 201.841 4.80148 200.822 4.85702L200.876 5.85554ZM206.953 5.57917L206.99 6.5785C207.995 6.54166 209.007 6.50891 210.026 6.4803L209.998 5.4807L209.97 4.48109C208.945 4.50986 207.928 4.54279 206.916 4.57984L206.953 5.57917ZM213.053 5.40769L213.072 6.40749C214.07 6.38779 215.073 6.37198 216.083 6.36011L216.071 5.36018L216.059 4.36025C215.044 4.37218 214.035 4.38807 213.033 4.40788L213.053 5.40769ZM219.127 5.33632L219.131 6.33632C219.642 6.33433 220.155 6.33333 220.669 6.33333V5.33333V4.33333C220.152 4.33333 219.637 4.33433 219.123 4.33633L219.127 5.33632ZM220.669 5.33333V6.33333H222.236V5.33333V4.33333H220.669V5.33333ZM225.371 5.33333V6.33333H228.505V5.33333V4.33333H225.371V5.33333ZM231.64 5.33333V6.33333H233.207V5.33333V4.33333H231.64V5.33333Z" fill="#05A3AB"/>
</svg>
